<?xml version="1.0" standalone="no"?>
<!DOCTYPE svg PUBLIC "-//W3C//DTD SVG 20010904//EN"
 "http://www.w3.org/TR/2001/REC-SVG-20010904/DTD/svg10.dtd">
<svg version="1.0" xmlns="http://www.w3.org/2000/svg"
 width="500.000000pt" height="500.000000pt" viewBox="0 0 500.000000 500.000000"
 preserveAspectRatio="xMidYMid meet">

<g transform="translate(0.000000,500.000000) scale(0.100000,-0.100000)"
fill="#000000" stroke="none">
<path d="M1506 3761 c-4 -6 5 -18 20 -27 31 -21 29 -43 -16 -149 -75 -179 -86
-218 -53 -197 10 7 43 78 99 219 28 69 44 87 60 62 3 -6 36 -31 73 -55 36 -24
88 -60 116 -79 48 -34 75 -44 75 -27 0 4 -14 16 -31 26 -34 20 -165 112 -217
152 -25 19 -31 30 -26 46 5 18 3 20 -22 15 -16 -3 -37 1 -50 10 -14 9 -24 10
-28 4z"/>
<path d="M1984 3728 c-17 -27 -84 -170 -84 -179 0 -5 7 -9 15 -9 8 0 30 31 51
71 19 39 37 69 38 68 2 -2 14 -40 26 -84 12 -44 31 -109 41 -145 10 -36 20
-77 24 -92 6 -33 31 -37 40 -8 6 19 52 57 59 49 2 -2 10 -59 19 -127 8 -68 17
-126 21 -129 3 -3 12 -3 19 0 12 4 13 15 7 49 -5 24 -11 68 -14 98 -22 190
-29 201 -88 135 -17 -20 -33 -33 -36 -31 -2 3 -26 81 -52 173 -33 119 -51 169
-62 171 -9 2 -20 -3 -24 -10z"/>
<path d="M1380 3349 c-158 -20 -350 -53 -350 -59 0 -9 84 -211 111 -267 19
-40 41 -54 53 -35 5 9 -5 31 -71 170 -25 51 -43 96 -40 99 10 9 188 42 285 52
90 9 128 23 116 42 -6 10 -13 10 -104 -2z"/>
<path d="M3417 3321 c-4 -16 -17 -19 -88 -23 -125 -8 -204 -54 -222 -129 -4
-14 -21 -36 -39 -49 -75 -52 -177 -208 -192 -293 -10 -56 6 -40 47 47 24 51
57 97 107 150 40 42 76 76 81 76 5 0 9 -10 9 -22 0 -13 6 -35 14 -50 16 -29
26 -19 -203 -207 -24 -20 -50 -42 -57 -49 -11 -10 -15 -9 -23 7 -6 10 -22 22
-37 25 -83 21 -149 -144 -94 -237 21 -35 56 -57 90 -57 14 0 21 -9 25 -37 22
-147 61 -234 131 -291 73 -60 188 -104 230 -88 16 6 16 8 0 25 -9 10 -35 24
-59 30 -63 19 -118 54 -166 106 -78 85 -102 178 -89 354 9 127 11 131 92 189
40 29 43 29 53 12 11 -16 148 -116 196 -142 16 -8 23 -7 34 8 11 15 10 21 -5
37 -9 11 -26 23 -37 28 -25 12 -59 34 -119 78 l-46 35 57 56 58 57 25 -26 c14
-14 38 -34 54 -45 39 -25 131 -32 176 -14 l36 15 84 -104 c97 -119 130 -174
130 -218 0 -41 -29 -149 -40 -153 -6 -2 -10 -16 -10 -30 -1 -100 -131 -222
-267 -250 -39 -8 -55 -34 -35 -54 12 -12 91 11 167 49 57 29 119 101 152 177
20 48 24 51 67 58 88 12 133 58 142 145 8 74 -21 112 -98 128 l-28 5 0 98 c-1
138 -27 238 -79 295 -14 15 -26 40 -27 56 -1 16 -5 37 -8 48 -5 16 3 23 56 41
35 12 70 22 79 22 43 0 176 -155 219 -254 22 -53 65 -230 75 -316 9 -71 34
-219 41 -245 5 -15 3 -17 -5 -9 -6 6 -25 48 -41 94 -39 110 -54 125 -47 45 5
-55 74 -243 98 -270 5 -5 9 -19 9 -32 0 -23 0 -23 -67 12 -45 24 -70 32 -77
25 -14 -14 22 -60 65 -83 l34 -19 -43 6 c-64 9 -130 44 -186 98 -27 26 -53 48
-58 48 -4 0 -8 -13 -8 -29 0 -37 80 -113 156 -147 57 -25 170 -34 190 -15 5 5
20 11 34 13 27 3 30 16 16 75 -6 28 -5 32 8 27 22 -8 21 -3 -19 127 -18 63
-48 197 -65 299 -18 102 -35 203 -39 226 -4 23 -27 81 -52 130 -34 69 -62 108
-125 171 -89 92 -97 95 -177 62 -29 -11 -63 -25 -76 -30 -22 -9 -44 -1 -62 24
-3 4 -25 17 -50 30 -29 15 -45 29 -47 45 -4 27 -18 29 -25 3z m-23 -79 c2 -4
-2 -37 -10 -72 -8 -36 -21 -99 -30 -140 -9 -41 -22 -81 -28 -88 -19 -20 -59
-5 -101 36 -46 46 -70 93 -79 153 -7 48 1 62 53 89 43 22 185 38 195 22z m82
-25 c2 -7 -18 -58 -45 -113 -27 -54 -50 -92 -50 -84 -1 8 9 59 21 113 20 89
23 97 45 97 13 0 26 -6 29 -13z m50 -35 c16 -10 30 -41 37 -80 6 -29 2 -39
-40 -83 -25 -27 -54 -49 -63 -49 -10 0 -24 -10 -32 -22 -8 -12 -19 -18 -26
-14 -13 8 -8 23 59 166 44 92 46 95 65 82z m96 -194 c43 -66 57 -114 65 -220
5 -73 4 -81 -9 -68 -19 19 -102 124 -146 183 l-33 45 43 56 c24 31 44 56 45
56 0 0 16 -24 35 -52z m-792 -257 c-5 -11 -15 -23 -20 -26 -6 -3 -10 -13 -10
-22 0 -13 3 -13 27 2 l26 18 -6 -68 c-4 -37 -8 -69 -10 -71 -2 -2 -17 -1 -34
2 -22 4 -37 17 -52 44 -24 42 -26 71 -10 103 16 30 28 37 67 37 29 0 32 -2 22
-19z m946 -152 c36 -10 50 -43 35 -81 -14 -37 -47 -60 -95 -65 l-45 -5 15 58
c9 33 18 72 21 87 4 21 10 27 22 22 9 -4 30 -11 47 -16z"/>
<path d="M2030 3219 c-25 -22 -82 -70 -127 -106 -75 -60 -101 -93 -72 -93 11
0 206 153 225 176 31 39 51 10 128 -188 77 -197 105 -315 96 -400 l-5 -48 -30
16 c-46 23 -50 31 -32 52 9 10 17 25 17 32 0 44 -247 376 -265 358 -4 -4 -1
-18 8 -32 16 -24 15 -25 -69 -110 -47 -47 -91 -86 -97 -86 -23 1 -129 68 -118
74 16 10 13 36 -4 36 -8 0 -22 -12 -32 -27 -24 -38 -125 -175 -166 -226 -56
-69 -56 -80 3 -118 28 -18 47 -36 43 -40 -5 -5 -27 -11 -49 -15 l-42 -6 -12
48 c-30 127 -32 156 -27 344 3 130 11 219 22 267 l17 73 60 -48 c75 -58 157
-115 212 -146 24 -13 52 -30 64 -37 19 -12 24 -11 38 3 16 16 15 18 -16 35
-18 10 -76 46 -128 81 -53 34 -98 62 -101 62 -3 0 -26 16 -49 35 -54 42 -80
51 -96 34 -7 -8 -21 -59 -31 -114 -10 -55 -23 -105 -29 -112 -6 -6 -66 -25
-134 -42 -68 -18 -145 -40 -172 -51 -27 -11 -56 -17 -63 -14 -10 3 -14 -5 -15
-31 -2 -38 0 -40 27 -26 14 8 28 0 70 -43 l53 -53 -49 -37 c-26 -20 -85 -63
-130 -97 -45 -33 -92 -74 -104 -91 l-22 -31 24 -18 c44 -33 86 -52 103 -46 25
10 8 34 -40 55 l-46 19 54 45 c29 25 73 58 98 75 25 17 65 49 90 71 l45 41 62
-61 62 -61 -56 -61 c-66 -71 -91 -122 -99 -204 -6 -53 -4 -66 19 -104 14 -24
47 -64 74 -88 29 -27 47 -52 45 -62 -2 -10 2 -18 7 -18 6 0 11 4 11 10 0 5 12
13 26 16 18 5 24 12 21 24 -5 18 3 28 95 127 l48 52 17 -27 c25 -41 95 -112
111 -112 22 0 4 38 -51 110 -47 61 -65 94 -81 146 -6 19 1 24 65 45 102 33
104 59 10 93 -32 11 -51 24 -51 33 0 9 20 41 45 72 25 31 49 61 53 66 4 6 22
31 40 58 18 26 35 47 38 47 2 0 36 -21 74 -46 l69 -45 103 99 102 100 44 -60
c70 -97 132 -195 132 -211 0 -18 -27 -30 -35 -17 -9 15 -45 12 -45 -4 0 -7 7
-19 15 -26 9 -7 14 -19 11 -27 -4 -8 3 -13 18 -13 12 0 44 -14 70 -32 44 -28
47 -34 42 -62 -11 -54 -84 -190 -130 -243 -104 -116 -262 -160 -389 -106 -20
9 -40 13 -43 10 -15 -15 9 -37 63 -57 48 -18 72 -21 138 -17 130 7 212 64 302
209 l35 57 35 -26 c21 -16 32 -32 28 -41 -3 -8 -12 -47 -21 -86 -17 -75 -44
-179 -49 -184 -6 -6 -74 73 -75 86 0 6 -4 12 -10 12 -10 0 -13 -8 -29 -105
-14 -77 -25 -125 -45 -200 -9 -32 -16 -69 -16 -82 0 -38 -18 -35 -45 7 -25 39
-35 46 -48 34 -13 -14 89 -167 105 -158 4 3 8 27 8 53 0 26 9 89 21 141 12 52
27 124 35 159 7 35 15 65 17 67 2 2 20 -15 41 -37 21 -22 43 -38 49 -36 12 4
28 61 57 202 28 134 29 135 45 128 10 -3 13 -13 9 -29 -5 -18 -2 -24 9 -24 9
0 19 5 22 10 3 6 14 10 23 10 13 0 17 10 19 43 1 23 9 59 17 79 33 77 13 233
-38 307 -30 42 -32 58 -12 80 22 25 64 100 102 181 70 152 90 185 120 190 36
7 42 28 11 35 -14 4 -28 16 -31 28 -6 22 -6 22 -28 -5 -22 -25 -32 -28 -173
-43 -82 -9 -164 -19 -180 -22 -29 -4 -32 -2 -54 51 -25 62 -57 106 -74 106 -7
-1 -32 -19 -57 -41z m457 -261 c-52 -105 -130 -228 -144 -228 -7 0 -13 -11
-13 -24 0 -48 -17 -35 -23 17 -3 28 -12 71 -20 94 l-14 42 121 90 c66 49 123
88 125 86 2 -2 -13 -37 -32 -77z m-1260 -182 c133 -36 143 -41 143 -73 0 -16
3 -52 6 -80 5 -36 3 -53 -4 -53 -7 0 -14 11 -18 25 -3 14 -13 25 -23 25 -9 0
-59 41 -111 90 -52 50 -91 90 -88 90 4 0 46 -11 95 -24z m1158 -150 c33 -56
46 -160 30 -240 -16 -77 -21 -81 -86 -56 -30 12 -58 25 -62 29 -4 4 0 33 10
64 15 47 22 57 41 57 25 0 30 18 7 26 -22 9 -19 69 7 120 12 24 23 44 24 44 2
0 15 -20 29 -44z m-1024 -107 c44 -46 48 -63 19 -79 -27 -15 -25 -30 4 -30 20
0 30 -10 50 -50 l26 -51 -75 -76 c-41 -42 -75 -80 -75 -84 0 -35 -83 29 -129
98 -48 71 -39 146 26 223 24 29 99 90 110 90 3 0 22 -18 44 -41z"/>
<path d="M1979 2730 c-47 -44 -61 -62 -52 -71 8 -8 25 0 66 31 54 40 67 57 67
86 0 24 -15 16 -81 -46z"/>
<path d="M3443 2744 c-61 -15 -85 -36 -64 -57 17 -17 168 22 174 44 9 34 -11
36 -110 13z"/>
<path d="M1615 2710 c-12 -20 20 -41 91 -61 83 -22 114 -24 114 -5 0 21 -19
31 -100 51 -41 10 -80 20 -86 22 -7 3 -15 -1 -19 -7z"/>
<path d="M3000 2684 c-16 -41 -12 -62 16 -80 52 -34 122 24 96 80 -10 22 -18
26 -57 26 -40 0 -47 -3 -55 -26z m75 -28 c0 -25 -16 -30 -39 -13 -24 17 -12
39 17 35 14 -2 22 -10 22 -22z"/>
<path d="M2012 2658 c-13 -13 -15 -37 -6 -62 7 -19 45 -21 62 -4 26 26 7 78
-28 78 -9 0 -21 -5 -28 -12z m43 -27 c7 -12 -12 -24 -25 -16 -11 7 -4 25 10
25 5 0 11 -4 15 -9z"/>
<path d="M3420 2614 c-22 -58 -4 -88 52 -82 42 4 67 46 49 84 -9 20 -18 24
-51 24 -34 0 -42 -4 -50 -26z m60 -24 c0 -5 -7 -10 -15 -10 -8 0 -15 5 -15 10
0 6 7 10 15 10 8 0 15 -4 15 -10z"/>
<path d="M1644 2616 c-3 -8 -4 -27 -2 -43 2 -23 8 -29 34 -31 37 -4 57 16 52
55 -3 24 -8 28 -41 31 -26 2 -39 -1 -43 -12z m59 -31 c-4 -15 -36 -12 -41 3
-3 9 3 13 19 10 13 -1 23 -7 22 -13z"/>
<path d="M2153 2520 c6 -24 -14 -30 -208 -59 -77 -12 -156 -25 -175 -30 -19
-5 -62 -15 -95 -22 -33 -7 -77 -18 -98 -25 -37 -13 -38 -13 -48 13 -14 38 -37
14 -23 -24 8 -23 16 -28 41 -28 19 0 41 -9 55 -22 37 -35 69 -30 93 14 17 32
27 38 75 49 104 24 234 37 238 25 2 -6 23 -25 47 -41 l44 -30 19 53 c18 48 23
53 61 61 48 12 51 23 13 59 -33 32 -46 34 -39 7z m-43 -87 c-1 -24 -18 -35
-39 -24 -30 17 -26 31 9 31 17 0 30 -3 30 -7z m-432 -88 c-13 -30 -20 -31 -42
-6 -17 18 -17 19 1 24 46 12 53 8 41 -18z"/>
<path d="M2942 2521 l-24 -6 31 -32 c17 -18 31 -41 31 -50 0 -10 12 -45 27
-79 27 -58 31 -62 99 -94 62 -29 81 -33 138 -31 36 1 79 6 96 11 28 8 30 7 31
-18 0 -25 2 -24 18 13 10 22 32 50 49 62 16 12 40 36 52 53 21 29 21 31 4 29
-27 -4 -84 11 -84 22 0 5 -11 9 -24 9 -13 0 -53 9 -88 21 -34 11 -76 22 -93
25 -56 11 -219 55 -230 63 -5 4 -21 5 -33 2z m86 -57 c23 -7 29 -38 13 -79 -7
-18 -9 -18 -23 10 -22 42 -31 75 -21 75 4 0 18 -3 31 -6z m129 -36 c25 -6 47
-16 49 -23 3 -7 -1 -36 -9 -66 -11 -46 -17 -54 -38 -57 -14 -2 -40 8 -59 21
-32 22 -35 27 -33 71 2 62 9 80 29 72 9 -4 37 -11 61 -18z m221 -63 c13 -5 16
-43 4 -61 -13 -20 -49 -33 -103 -39 -77 -8 -81 -3 -63 77 l15 66 67 -19 c37
-10 73 -21 80 -24z m72 -19 c0 -14 -29 -31 -38 -22 -2 3 -2 12 1 21 8 19 37
20 37 1z"/>
<path d="M990 2319 c0 -11 9 -57 21 -102 18 -73 32 -123 84 -302 41 -139 87
-292 95 -310 4 -11 34 -100 66 -197 49 -148 62 -178 78 -178 21 0 62 35 326
275 97 88 190 171 206 185 29 24 74 81 74 94 0 19 -42 1 -71 -31 -19 -21 -57
-58 -84 -82 -70 -61 -242 -220 -349 -323 l-91 -87 -12 37 c-6 20 -34 102 -63
182 -51 145 -62 178 -95 300 -9 36 -32 115 -50 175 -19 61 -50 164 -70 230
-20 66 -38 128 -41 138 -7 24 -24 21 -24 -4z"/>
</g>
</svg>
